<svg width="70" height="70" viewBox="0 0 70 70" fill="none" xmlns="http://www.w3.org/2000/svg">
<g clip-path="url(#clip0_1_344)">
<path d="M68.4614 33.4715L67.9614 33.4726C67.9898 46.7176 60.0653 58.6854 47.8603 63.8307L47.4795 63.9913L47.5654 64.3955L48.4208 68.4176C48.4209 68.4178 48.4209 68.418 48.4209 68.4182C48.4532 68.5718 48.4451 68.7298 48.3974 68.8777L48.3971 68.8784C48.2461 69.3491 47.7422 69.6078 47.2717 69.4567L47.2709 69.4564L36.555 66.0363C36.4011 65.9872 36.264 65.898 36.1569 65.7779C35.8278 65.4084 35.8608 64.8429 36.2301 64.5144L36.2307 64.5138L44.6237 57.0208C44.7403 56.9169 44.882 56.8451 45.0349 56.8124C45.5182 56.7102 45.9931 57.0193 46.095 57.5022L46.0951 57.5028L46.9657 61.6027L47.094 62.207L47.6583 61.9556C55.3528 58.527 61.3356 52.1345 64.2474 44.2299C70.2074 28.0511 61.9228 10.1034 45.7434 4.14348C29.5641 -1.81646 11.6169 6.46808 5.657 22.6475C-0.302945 38.8268 7.9816 56.774 24.161 62.7339L24.6529 62.9151L24.8106 62.4151L32.8664 36.8808L32.9713 36.5483L32.6955 36.3349C31.3431 35.2882 30.9129 33.4347 31.6652 31.8992L31.8223 31.5785L31.57 31.3259L20.4099 20.153C20.0773 19.8056 20.0781 19.2582 20.4124 18.9118C20.7547 18.5575 21.319 18.5466 21.675 18.8872L32.8408 30.0546L33.0931 30.307L33.4138 30.1503C33.9047 29.9105 34.444 29.7847 34.9904 29.7824L34.9908 29.7824C37.0261 29.772 38.6842 31.4132 38.6945 33.4484V33.4486C38.7053 35.4832 37.0642 37.1418 35.029 37.1521L34.6644 37.154L34.5547 37.5017L26.1001 64.2981L68.4614 33.4715ZM68.4614 33.4715L67.9614 33.4716C67.9577 15.2582 53.1896 0.496318 34.9755 0.500001C16.7621 0.503683 2.00022 15.2724 2.00391 33.4858C2.00706 47.8322 11.284 60.5304 24.9504 64.8946C25.0346 64.921 25.1209 64.9341 25.2061 64.9338H25.207C25.3822 64.9335 25.5531 64.8867 25.7028 64.7983L68.4614 33.4715ZM39.2446 64.2185L38.5915 64.801L39.425 65.0678L45.5212 67.0192L46.3416 67.2818L46.1628 66.4392L44.8442 60.226L44.6653 59.3831L44.0223 59.9567L39.2446 64.2185ZM26.1 64.2986C26.0335 64.5085 25.892 64.6864 25.7031 64.7982L26.1 64.2986ZM36.8779 33.4715C36.8779 32.4253 36.0292 31.5766 34.9829 31.5766C33.936 31.5766 33.088 32.4254 33.088 33.4715C33.088 34.5183 33.9361 35.3665 34.9829 35.3665C36.029 35.3665 36.8779 34.5184 36.8779 33.4715Z" fill="#212121" stroke="black"/>
<path d="M33.5879 6.96729V9.7572C33.5879 10.5278 34.2122 11.1522 34.9828 11.1522C35.753 11.1522 36.3778 10.5278 36.3778 9.7572V6.96729C36.3778 6.19717 35.753 5.57233 34.9828 5.57233C34.2122 5.57233 33.5879 6.19717 33.5879 6.96729Z" fill="#2196F3"/>
<path d="M8.4787 32.0765C7.70805 32.0765 7.08374 32.7014 7.08374 33.4715C7.08374 34.2421 7.70805 34.8665 8.4787 34.8665H11.2686C12.0393 34.8665 12.6636 34.2421 12.6636 33.4715C12.6636 32.7014 12.0393 32.0765 11.2686 32.0765H8.4787Z" fill="#2196F3"/>
<path d="M61.4866 34.8665C62.2572 34.8665 62.8815 34.2421 62.8815 33.4715C62.8815 32.7014 62.2572 32.0765 61.4866 32.0765H58.6967C57.9265 32.0765 57.3017 32.7014 57.3017 33.4715C57.3017 34.2421 57.9265 34.8665 58.6967 34.8665H61.4866Z" fill="#2196F3"/>
</g>
<defs>
<clipPath id="clip0_1_344">
<rect width="70" height="70" fill="white"/>
</clipPath>
</defs>
</svg>
